inDegrees=yes
name=ik_S49_A13_T01
DataType=double
version=3
OpenSimVersion=4.3-2021-08-27-4bc7ad9
endheader
time	pelvis_tilt	pelvis_list	pelvis_rotation	pelvis_tx	pelvis_ty	pelvis_tz	hip_flexion_r	hip_adduction_r	hip_rotation_r	knee_angle_r	knee_angle_r_beta	ankle_angle_r	subtalar_angle_r	mtp_angle_r	hip_flexion_l	hip_adduction_l	hip_rotation_l	knee_angle_l	knee_angle_l_beta	ankle_angle_l	subtalar_angle_l	mtp_angle_l	lumbar_extension	lumbar_bending	lumbar_rotation	arm_flex_r	arm_add_r	arm_rot_r	elbow_flex_r	pro_sup_r	wrist_flex_r	wrist_dev_r	arm_flex_l	arm_add_l	arm_rot_l	elbow_flex_l	pro_sup_l	wrist_flex_l	wrist_dev_l
3.880000000000003	0.158532041417254	2.696010706846917	17.52632251265762	0	0.9399999999999999	0	18.32878314670958	-7.083663206952003	-5.827981830932582	22.29721574910738	0.3891598288494576	0	0	0	18.32878314670958	-7.083663206952003	-5.827981830932582	22.29721574910738	0.3891598288494576	0	0	0	1.305676488970442	4.075127618760263	9.709240752197275	46.50926736812495	-9.420205171957768	20.46963834924583	32.77393034427978	152.2998637582853	0	0	91.78632778438532	-14.35135076726793	34.2953114093131	19.96581366169769	92.50311888272425	0	0
3.900000000000003	0.1555466928256207	2.678251854172614	17.47757824315128	0	0.9399999999999999	0	18.33661073681448	-7.086251768609054	-5.830376859763619	22.3048206896787	0.3892925601018458	0	0	0	18.33661073681448	-7.086251768609054	-5.830376859763619	22.3048206896787	0.3892925601018458	0	0	0	1.29652890547444	4.059549634921596	9.729754502821288	46.68112141838314	-9.333382220048499	20.48863996692568	32.97862021494328	152.0395278060505	0	0	91.70150990507665	-14.24843096604386	34.32333439897915	20.03320077212675	93.03174622206002	0	0
3.920000000000003	0.1630807759363772	2.698203268303697	17.48798057788854	0	0.9399999999999999	0	18.46436836868153	-7.124248294818602	-5.867803807849584	22.42686970666461	0.3914227172970723	0	0	0	18.46436836868153	-7.124248294818602	-5.867803807849584	22.42686970666461	0.3914227172970723	0	0	0	1.308302323635325	4.071673738959254	9.702314512773185	46.66375628798826	-9.36492787456295	20.55144298836192	33.45479267262942	151.8121766115397	0	0	91.64559032440724	-14.24724538752393	34.28821189916009	20.10978476944764	93.21828715949948	0	0
3.940000000000003	0.1686729663084699	2.685807924135368	17.4611855048157	0	0.9399999999999999	0	18.47447805621033	-7.127602252599306	-5.870906475130979	22.4365998845811	0.3915925409385198	0	0	0	18.47447805621033	-7.127602252599306	-5.870906475130979	22.4365998845811	0.3915925409385198	0	0	0	1.30773168456625	4.059504249355424	9.749048434564489	47.14820611971591	-9.227656820872649	20.40943176808686	33.40261878491909	151.7546965856965	0	0	91.5172960306241	-14.05045727895716	34.37356401932099	20.17073376458168	93.60921240710952	0	0
3.960000000000003	0.1754815093718796	2.685249042321898	17.43131088275055	0	0.9399999999999999	0	18.48955360217973	-7.132619527455149	-5.875542347218949	22.45105848251898	0.391844891077758	0	0	0	18.48955360217973	-7.132619527455149	-5.875542347218949	22.45105848251898	0.391844891077758	0	0	0	1.312850431532437	4.057271613810183	9.773180795710632	47.41012324013518	-9.114309690131323	20.29616611131619	33.50517864584634	151.8256321194756	0	0	91.44800521397759	-13.92292716719298	34.34938809402863	20.20097363415203	93.91119959706346	0	0
3.980000000000003	0.1808818797435667	2.683559023515305	17.39568311840567	0	0.9399999999999999	0	18.50031633268533	-7.136187084441522	-5.878844925125305	22.46140791206328	0.3920255226990091	0	0	0	18.50031633268533	-7.136187084441522	-5.878844925125305	22.46140791206328	0.3920255226990091	0	0	0	1.31659383696075	4.054310907771299	9.790567293139295	47.69934008245712	-9.042964691007874	20.2083982534433	33.39194137222925	151.8897866024176	0	0	91.41640464345268	-13.86477178567242	34.35471008866674	20.28082063376861	94.41102713767246	0	0
4.000000000000003	0.1959611677891709	2.677554028403359	17.36875681583267	0	0.9399999999999999	0	18.51138453906417	-7.139848096687354	-5.882237564671654	22.47206333383531	0.3922114948921198	0	0	0	18.51138453906417	-7.139848096687354	-5.882237564671654	22.47206333383531	0.3922114948921198	0	0	0	1.328496468193478	4.044144320314691	9.803442191117865	47.97164861808746	-8.951352165263907	20.105221233317	33.46099154750885	151.9740887465689	0	0	91.40052991259506	-13.80518847051649	34.36767182668807	20.35611468034985	95.21159263937183	0	0
4.020000000000002	0.2061745651861469	2.674593550378553	17.34634901095563	0	0.9399999999999999	0	18.52303823114201	-7.143708622739743	-5.885813287249455	22.48326006110993	0.3924069146485098	0	0	0	18.52303823114201	-7.143708622739743	-5.885813287249455	22.48326006110993	0.3924069146485098	0	0	0	1.336494600028061	4.038498525770503	9.819564883180123	48.22134096219542	-8.863380964272691	19.96897942276593	33.64298459661591	152.0263501553808	0	0	91.36590413061029	-13.7397587273561	34.4250289887367	20.442040750758	95.83214554254245	0	0
4.040000000000002	0.2514672273690001	2.67615778591278	17.3252940441268	0	0.9399999999999999	0	18.53784752603206	-7.148614283481781	-5.89035788610572	22.49747770072176	0.3926550592715982	0	0	0	18.53784752603206	-7.148614283481781	-5.89035788610572	22.49747770072176	0.3926550592715982	0	0	0	1.379567474413303	4.026414209678496	9.833530813738268	48.36797502346287	-8.766548032327146	19.78843327510916	33.52968787077328	152.1887367144728	0	0	91.2833185823702	-13.70510733446988	34.57745065573361	20.55398671514024	96.60732826561019	0	0
4.060000000000001	0.2569907471857557	2.688800313868586	17.31303034431527	0	0.9399999999999999	0	18.54227839573064	-7.150067253972098	-5.89170985852757	22.50176658454784	0.3927299144155989	0	0	0	18.54227839573064	-7.150067253972098	-5.89170985852757	22.50176658454784	0.3927299144155989	0	0	0	1.38788336025052	4.037241433091631	9.848912611572812	48.61872557060578	-8.721791775311061	19.68739265763317	33.55013885109342	152.2318653362508	0	0	91.21239331459887	-13.65320517612871	34.71215597712106	20.61866832639274	96.77717562792306	0	0
4.080000000000001	0.2807548793281293	2.679821403981053	17.30567433121907	0	0.9399999999999999	0	18.55159101178724	-7.153141297350126	-5.894562425054757	22.51072619914097	0.3928862891899586	0	0	0	18.55159101178724	-7.153141297350126	-5.894562425054757	22.51072619914097	0.3928862891899586	0	0	0	1.407091930611697	4.021894036739816	9.866408726033402	48.83230490248679	-8.646197115414815	19.54857631331978	33.54074762135401	152.3631570711798	0	0	91.16774563607093	-13.60087635134682	34.8645070161511	20.80574209823828	97.19084581559932	0	0
4.100000000000001	0.3038703228061734	2.679080107442327	17.30333449450627	0	0.9399999999999999	0	18.56433517120673	-7.157340688463357	-5.898462692303806	22.52299783900925	0.3931004697102791	0	0	0	18.56433517120673	-7.157340688463357	-5.898462692303806	22.52299783900925	0.3931004697102791	0	0	0	1.42814632741655	4.014472120382963	9.881360151931949	49.04773824393199	-8.60402020823647	19.47311370885989	33.68183721102994	152.4191422689779	0	0	91.04775003568257	-13.54466632156438	34.82215129399462	21.027491042758	97.88995974532011	0	0
4.12	0.3242286588052194	2.667207582817585	17.30977861725496	0	0.9399999999999999	0	18.57225603749188	-7.159944125889779	-5.900883705377487	22.53063541611932	0.3932337705777248	0	0	0	18.57225603749188	-7.159944125889779	-5.900883705377487	22.53063541611932	0.3932337705777248	0	0	0	1.443297955213322	3.997382975388885	9.897475884610195	49.27262821202277	-8.531493870588672	19.30554667459277	33.71824692193857	152.4571731311121	0	0	91.05091446677724	-13.52437970301646	34.88263976306732	21.22520041245466	98.51559243402625	0	0
4.14	0.3319557534244545	2.677325464175438	17.29991242844893	0	0.9399999999999999	0	18.58244509916597	-7.163304142713171	-5.904004125308622	22.54042873070037	0.3934046961618476	0	0	0	18.58244509916597	-7.163304142713171	-5.904004125308622	22.54042873070037	0.3934046961618476	0	0	0	1.45272946900936	4.005127986609508	9.916374796743433	49.5262909551252	-8.501947895831123	19.14947193493997	33.93671367086768	152.6087951154241	0	0	90.97959182261327	-13.49192628954257	34.91443596123208	21.40786957816131	99.01473194578271	0	0
4.159999999999999	0.3569683630745617	2.672871435754194	17.3161249531913	0	0.9399999999999999	0	18.58979911947098	-7.165721789793164	-5.906252583054999	22.54751185006478	0.3935283199160685	0	0	0	18.58979911947098	-7.165721789793164	-5.906252583054999	22.54751185006478	0.3935283199160685	0	0	0	1.474137254065895	3.994139947169947	9.941225878392574	49.77880855613446	-8.411792411594254	18.97554449722283	33.8404938483688	152.6644247642162	0	0	90.94910312546202	-13.43152673055931	34.94747746864835	21.57779704390007	99.33985241708028	0	0
4.179999999999999	0.3772567347555064	2.671991112646106	17.3231379651634	0	0.9399999999999999	0	18.59736369917445	-7.168204317479751	-5.908563226524256	22.55480661826857	0.3936556376393943	0	0	0	18.59736369917445	-7.168204317479751	-5.908563226524256	22.55480661826857	0.3936556376393943	0	0	0	1.493095385623718	3.987007094663009	9.944089984241371	49.75465151544883	-8.416087419282592	18.93889332511061	34.16694228108572	152.6265124427988	0	0	90.79198022086364	-13.39131332269935	35.29440916797633	21.78605781332378	99.35036894912233	0	0
4.199999999999998	0.3893425605033047	2.681897343557167	17.34756577643071	0	0.9399999999999999	0	18.60693975731109	-7.171357560163547	-5.91149430579553	22.56400907880342	0.3938162508750123	0	0	0	18.60693975731109	-7.171357560163547	-5.91149430579553	22.56400907880342	0.3938162508750123	0	0	0	1.506811213948777	3.993120083524616	9.958149025133221	50.35779770901916	-8.224570816978918	18.68546118369222	33.98446032077663	152.7662949980083	0	0	90.71728993618714	-13.37180268992678	35.39552839491459	21.97891410032793	99.45462762855354	0	0
4.219999999999998	0.4084377754263143	2.680577799516929	17.3629079175745	0	0.9399999999999999	0	18.61899317865467	-7.175325122515584	-5.915183385833735	22.57558841648904	0.3940183484428267	0	0	0	18.61899317865467	-7.175325122515584	-5.915183385833735	22.57558841648904	0.3940183484428267	0	0	0	1.524599944694691	3.98568527801611	9.956035383384458	50.68894214995264	-8.056204017406033	18.56947863353882	33.77122864972167	152.8853745684844	0	0	90.62355628417669	-13.33922436657744	35.45993941827349	22.15970406212983	99.83851846874381	0	0
4.239999999999998	0.4265851100382507	2.683205236141355	17.38704915089316	0	0.9399999999999999	0	18.62646243283868	-7.177772559511856	-5.917463684449115	22.58278837104265	0.3941440113557812	0	0	0	18.62646243283868	-7.177772559511856	-5.917463684449115	22.58278837104265	0.3941440113557812	0	0	0	1.543058225749355	3.982121765826586	9.946130617166908	51.05570676929589	-7.947480180345353	18.50957992242171	33.83329756839645	152.950883304567	0	0	90.51435279339418	-13.33474268962138	35.51336661163123	22.28812047027454	100.0750505140063	0	0
4.259999999999997	0.4448046392335875	2.681186493601503	17.40896011996732	0	0.9399999999999999	0	18.6381946251202	-7.181629688743451	-5.921052806650897	22.59405761233845	0.3943406967205946	0	0	0	18.6381946251202	-7.181629688743451	-5.921052806650897	22.59405761233845	0.3943406967205946	0	0	0	1.560209260984637	3.973917759931468	9.933815558742765	51.39046628597153	-7.80240952635164	18.42056301293495	33.8978015589298	153.007718955327	0	0	90.42424540286915	-13.33026390999514	35.51589565510346	22.49709416619858	100.4891298881624	0	0
